<?xml version="1.0" encoding="UTF-8"?>
<svg width="166px" height="48px" viewBox="0 0 166 48" version="1.1" xmlns="http://www.w3.org/2000/svg" xmlns:xlink="http://www.w3.org/1999/xlink">
    <!-- Generator: Sketch 50 (54983) - http://www.bohemiancoding.com/sketch -->
    <title>maxwellplus_logo</title>
    <desc>Created with Sketch.</desc>
    <defs>
        <polygon id="path-1" points="0 0.1882 46.81225 0.1882 46.81225 47 0 47"></polygon>
    </defs>
    <g id="UI---Website---phase-2" stroke="none" stroke-width="1" fill="none" fill-rule="evenodd">
        <g id="export-work-board" transform="translate(-1025.000000, -1481.000000)">
            <g id="maxwellplus_logo" transform="translate(1025.000000, 1480.896417)">
                <path d="M68.7345,22.9267 C68.7345,21.9247 68.2905,21.2497 67.2115,21.2497 C66.3325,21.2497 65.5075,21.8487 65.0895,22.4297 C65.0645,22.4647 65.0525,22.5067 65.0525,22.5497 L65.0525,28.7977 C65.0525,28.9077 64.9635,28.9977 64.8525,28.9977 L63.2295,28.9977 C63.1185,28.9977 63.0285,28.9077 63.0285,28.7977 L63.0285,22.9267 C63.0285,21.9247 62.5855,21.2497 61.4865,21.2497 C60.6265,21.2497 59.8195,21.8497 59.3855,22.4487 C59.3595,22.4847 59.3475,22.5267 59.3475,22.5697 L59.3475,28.7977 C59.3475,28.9077 59.2575,28.9977 59.1465,28.9977 L57.5245,28.9977 C57.4135,28.9977 57.3235,28.9077 57.3235,28.7977 L57.3235,19.8897 C57.3235,19.7787 57.4135,19.6887 57.5245,19.6887 L59.1465,19.6887 C59.2575,19.6887 59.3475,19.7787 59.3475,19.8897 L59.3475,20.4267 C59.3475,20.6057 59.5585,20.6927 59.6885,20.5697 C60.2495,20.0397 61.2565,19.4567 62.3735,19.4567 C63.6065,19.4567 64.4135,20.0047 64.7945,20.8437 C64.8555,20.9787 65.0335,20.9997 65.1275,20.8857 C65.7385,20.1397 66.8485,19.4567 68.0795,19.4567 C69.7945,19.4567 70.7575,20.3827 70.7575,22.2717 L70.7575,28.7977 C70.7575,28.9077 70.6685,28.9977 70.5575,28.9977 L68.9355,28.9977 C68.8245,28.9977 68.7345,28.9077 68.7345,28.7977 L68.7345,22.9267 Z" id="Fill-1" fill="#FEFEFE"></path>
                <path d="M78.6783,25.5429 C78.6783,25.4959 78.6633,25.4499 78.6353,25.4129 C78.1623,24.8149 77.3213,24.5079 76.4613,24.5079 C75.3243,24.5079 74.4763,25.1619 74.4763,26.1839 C74.4763,27.1869 75.3243,27.8419 76.4613,27.8419 C77.3213,27.8419 78.1623,27.5339 78.6353,26.9359 C78.6633,26.8989 78.6783,26.8529 78.6783,26.8059 L78.6783,25.5429 Z M78.6783,28.4729 C78.6783,28.2989 78.4773,28.2119 78.3453,28.3239 C77.6613,28.9079 76.7223,29.2299 75.6713,29.2299 C74.1493,29.2299 72.4333,28.2079 72.4333,26.1459 C72.4333,24.0059 74.1493,23.1189 75.6713,23.1189 C76.7343,23.1189 77.6723,23.4109 78.3443,23.9809 C78.4773,24.0949 78.6783,24.0079 78.6783,23.8339 L78.6783,22.9269 C78.6783,21.8479 77.7913,21.1919 76.5003,21.1919 C75.5363,21.1919 74.6893,21.5219 73.9263,22.1979 C73.8303,22.2829 73.6833,22.2649 73.6183,22.1549 L72.9993,21.1039 C72.9503,21.0209 72.9663,20.9119 73.0373,20.8489 C74.0953,19.9039 75.3993,19.4569 76.8273,19.4569 C78.8903,19.4569 80.7023,20.3239 80.7023,22.8299 L80.7023,28.7979 C80.7023,28.9079 80.6123,28.9979 80.5013,28.9979 L78.8793,28.9979 C78.7683,28.9979 78.6783,28.9079 78.6783,28.7979 L78.6783,28.4729 Z" id="Fill-3" fill="#FEFEFE"></path>
                <path d="M86.2423,25.7998 L84.0383,28.9128 C84.0003,28.9668 83.9393,28.9978 83.8743,28.9978 L82.1133,28.9978 C81.9503,28.9978 81.8543,28.8138 81.9503,28.6808 L85.0523,24.3338 C85.1013,24.2648 85.1013,24.1708 85.0523,24.1018 L82.1413,20.0058 C82.0473,19.8728 82.1413,19.6888 82.3043,19.6888 L84.0863,19.6888 C84.1513,19.6888 84.2123,19.7208 84.2503,19.7748 L86.2423,22.6138 C86.3223,22.7288 86.4913,22.7288 86.5713,22.6128 L88.5443,19.7748 C88.5823,19.7208 88.6433,19.6888 88.7093,19.6888 L90.4893,19.6888 C90.6523,19.6888 90.7473,19.8728 90.6533,20.0058 L87.7423,24.1018 C87.6933,24.1708 87.6933,24.2648 87.7433,24.3348 L90.8623,28.6808 C90.9583,28.8138 90.8633,28.9978 90.6993,28.9978 L88.9213,28.9978 C88.8553,28.9978 88.7943,28.9668 88.7563,28.9128 L86.5703,25.7998 C86.4913,25.6868 86.3223,25.6868 86.2423,25.7998" id="Fill-5" fill="#FEFEFE"></path>
                <path d="M97.8756,22.7802 L95.9526,28.8582 C95.9266,28.9412 95.8486,28.9982 95.7616,28.9982 L93.9366,28.9982 C93.8476,28.9982 93.7706,28.9412 93.7446,28.8572 L90.9776,19.9492 C90.9376,19.8192 91.0346,19.6882 91.1696,19.6882 L92.8476,19.6882 C92.9366,19.6882 93.0156,19.7482 93.0406,19.8332 L94.7826,25.8302 C94.8376,26.0192 95.1046,26.0242 95.1666,25.8362 L97.1346,19.8272 C97.1616,19.7442 97.2386,19.6882 97.3256,19.6882 L98.8086,19.6882 C98.8956,19.6882 98.9726,19.7442 98.9996,19.8272 L100.9676,25.8372 C101.0296,26.0242 101.2966,26.0192 101.3516,25.8302 L103.0946,19.8332 C103.1196,19.7482 103.1976,19.6882 103.2876,19.6882 L104.9646,19.6882 C105.1006,19.6882 105.1966,19.8192 105.1566,19.9492 L102.3896,28.8572 C102.3636,28.9412 102.2866,28.9982 102.1976,28.9982 L100.3726,28.9982 C100.2856,28.9982 100.2076,28.9412 100.1816,28.8582 L98.2586,22.7802 C98.1996,22.5932 97.9346,22.5932 97.8756,22.7802" id="Fill-7" fill="#FEFEFE"></path>
                <path d="M108.0084,23.582 L112.8054,23.582 C112.9284,23.582 113.0194,23.473 113.0044,23.351 C112.8754,22.301 112.1064,21.115 110.4014,21.115 C108.7804,21.115 107.9844,22.276 107.8084,23.356 C107.7884,23.476 107.8874,23.582 108.0084,23.582 M110.4014,19.457 C113.1964,19.457 114.9884,21.597 114.9884,24.526 L114.9884,25.009 L108.0324,25.009 C107.9104,25.009 107.8114,25.119 107.8334,25.239 C108.0724,26.54 109.1114,27.571 110.7674,27.571 C111.5994,27.571 112.5774,27.263 113.2394,26.705 C113.3324,26.627 113.4704,26.639 113.5394,26.738 L114.2314,27.733 C114.2894,27.817 114.2794,27.934 114.2024,28.001 C113.2814,28.809 111.9704,29.229 110.5554,29.229 C107.7604,29.229 105.6794,27.283 105.6794,24.334 C105.6794,21.635 107.6454,19.457 110.4014,19.457" id="Fill-9" fill="#FEFEFE"></path>
                <path d="M116.8077,16.1416 L118.4307,16.1416 C118.5407,16.1416 118.6307,16.2316 118.6307,16.3426 L118.6307,28.7976 C118.6307,28.9086 118.5407,28.9976 118.4307,28.9976 L116.8077,28.9976 C116.6967,28.9976 116.6067,28.9086 116.6067,28.7976 L116.6067,16.3426 C116.6067,16.2316 116.6967,16.1416 116.8077,16.1416" id="Fill-11" fill="#FEFEFE"></path>
                <path d="M121.0675,16.1416 L122.6895,16.1416 C122.8005,16.1416 122.8905,16.2316 122.8905,16.3426 L122.8905,28.7976 C122.8905,28.9086 122.8005,28.9976 122.6895,28.9976 L121.0675,28.9976 C120.9565,28.9976 120.8665,28.9086 120.8665,28.7976 L120.8665,16.3426 C120.8665,16.2316 120.9565,16.1416 121.0675,16.1416" id="Fill-13" fill="#FEFEFE"></path>
                <path d="M129.7062,21.7294 C128.9382,21.7294 128.0602,22.1654 127.6382,22.7384 C127.6112,22.7734 127.5992,22.8164 127.5992,22.8604 L127.5992,26.0294 C127.5992,26.0744 127.6122,26.1184 127.6392,26.1534 C128.0622,26.7084 128.9392,27.1614 129.7062,27.1614 C131.1172,27.1614 132.0642,26.0594 132.0642,24.4354 C132.0642,22.8314 131.1172,21.7294 129.7062,21.7294 M125.1442,32.4684 L125.1442,19.9784 C125.1442,19.8674 125.2342,19.7774 125.3452,19.7774 L127.3972,19.7774 C127.5092,19.7774 127.5992,19.8674 127.5992,19.9784 L127.5992,20.4334 C127.5992,20.6144 127.8142,20.6994 127.9432,20.5734 C128.6262,19.9084 129.5112,19.5444 130.4792,19.5444 C132.8762,19.5444 134.6162,21.3234 134.6162,24.4354 C134.6162,27.5474 132.8762,29.3454 130.4792,29.3454 C129.5372,29.3454 128.6522,29.0064 127.9432,28.3034 C127.8152,28.1764 127.5992,28.2614 127.5992,28.4424 L127.5992,32.4684 C127.5992,32.5804 127.5092,32.6694 127.3972,32.6694 L125.3452,32.6694 C125.2342,32.6694 125.1442,32.5804 125.1442,32.4684" id="Fill-15" fill="#FEFEFE"></path>
                <path d="M136.2657,16.2207 L138.3177,16.2207 C138.4287,16.2207 138.5187,16.3107 138.5187,16.4217 L138.5187,28.9117 C138.5187,29.0237 138.4287,29.1137 138.3177,29.1137 L136.2657,29.1137 C136.1547,29.1137 136.0647,29.0237 136.0647,28.9117 L136.0647,16.4217 C136.0647,16.3107 136.1547,16.2207 136.2657,16.2207" id="Fill-17" fill="#FEFEFE"></path>
                <path d="M146.8692,28.416 C146.8692,28.24 146.6642,28.152 146.5322,28.268 C145.8682,28.852 144.8692,29.346 143.5832,29.346 C141.5342,29.346 140.5682,28.225 140.5682,26.407 L140.5682,19.978 C140.5682,19.867 140.6582,19.777 140.7692,19.777 L142.8212,19.777 C142.9322,19.777 143.0222,19.867 143.0222,19.978 L143.0222,25.44 C143.0222,26.736 143.6992,27.161 144.7432,27.161 C145.6572,27.161 146.3912,26.675 146.8242,26.155 C146.8542,26.118 146.8692,26.072 146.8692,26.024 L146.8692,19.978 C146.8692,19.867 146.9592,19.777 147.0712,19.777 L149.1222,19.777 C149.2342,19.777 149.3242,19.867 149.3242,19.978 L149.3242,28.912 C149.3242,29.023 149.2342,29.113 149.1222,29.113 L147.0712,29.113 C146.9592,29.113 146.8692,29.023 146.8692,28.912 L146.8692,28.416 Z" id="Fill-19" fill="#FEFEFE"></path>
                <path d="M151.4991,26.3759 C151.5611,26.2749 151.7001,26.2479 151.7921,26.3229 C152.5141,26.9079 153.7811,27.4509 154.8511,27.4509 C155.9151,27.4509 156.4171,27.0839 156.4171,26.5039 C156.4171,25.8469 155.6051,25.6149 154.5421,25.4019 C152.9381,25.0929 150.8691,24.7059 150.8691,22.4829 C150.8691,20.9179 152.2421,19.5449 154.6971,19.5449 C156.2031,19.5449 157.4121,20.0339 158.3081,20.7129 C158.3891,20.7729 158.4091,20.8869 158.3581,20.9749 L157.6081,22.2799 C157.5461,22.3889 157.4001,22.4169 157.3061,22.3349 C156.7161,21.8149 155.7481,21.4199 154.7161,21.4199 C153.8271,21.4199 153.2471,21.7489 153.2471,22.2899 C153.2471,22.8699 153.9811,23.0829 155.0251,23.2949 C156.6301,23.6049 158.7751,24.0299 158.7751,26.3499 C158.7751,28.0699 157.3261,29.3459 154.7351,29.3459 C153.1811,29.3459 151.6801,28.8499 150.6891,28.0099 C150.6131,27.9449 150.5991,27.8329 150.6511,27.7479 L151.4991,26.3759 Z" id="Fill-21" fill="#FEFEFE"></path>
                <path d="M165.5065,18.2871 L163.5975,18.2871 L163.5975,16.3791 C163.5975,16.2911 163.5275,16.2211 163.4395,16.2211 L161.8275,16.2211 C161.7405,16.2211 161.6705,16.2911 161.6705,16.3791 L161.6705,18.2871 L159.7615,18.2871 C159.6735,18.2871 159.6035,18.3581 159.6035,18.4451 L159.6035,20.0581 C159.6035,20.1441 159.6735,20.2161 159.7615,20.2161 L161.6705,20.2161 L161.6705,22.1241 C161.6705,22.2121 161.7405,22.2821 161.8275,22.2821 L163.4395,22.2821 C163.5275,22.2821 163.5975,22.2121 163.5975,22.1241 L163.5975,20.2161 L165.5065,20.2161 C165.5935,20.2161 165.6645,20.1441 165.6645,20.0581 L165.6645,18.4451 C165.6645,18.3581 165.5935,18.2871 165.5065,18.2871" id="Fill-23" fill="#FEFEFE"></path>
                <g id="Group-27" transform="translate(0.000000, 0.812300)">
                    <mask id="mask-2" fill="white">
                        <use xlink:href="#path-1"></use>
                    </mask>
                    <g id="Clip-26"></g>
                    <path d="M38.691,8.3087 C30.263,-0.1193 16.549,-0.1193 8.122,8.3087 C-0.307,16.7377 -0.307,30.4507 8.122,38.8777 C16.549,47.3067 30.263,47.3067 38.691,38.8777 C47.119,30.4507 47.119,16.7377 38.691,8.3087 M6.848,40.1527 C-2.283,31.0217 -2.283,16.1657 6.848,7.0357 C15.978,-2.0943 30.834,-2.0943 39.964,7.0357 C49.095,16.1657 49.095,31.0217 39.964,40.1527 C30.834,49.2827 15.978,49.2827 6.848,40.1527" id="Fill-25" fill="#FEFEFE" mask="url(#mask-2)"></path>
                </g>
                <path d="M9.5582,34.6328 C9.7032,34.4868 9.7192,34.2608 9.6002,34.0928 C4.9382,27.5228 5.4202,18.0298 11.4122,12.0378 C17.4132,6.0378 26.9102,5.5498 33.4712,10.2218 C33.6382,10.3408 33.8662,10.3248 34.0112,10.1798 L34.6962,9.4948 C34.8782,9.3128 34.8582,9.0058 34.6482,8.8558 C27.4362,3.6398 16.7952,4.0818 10.1252,10.7518 C3.4472,17.4308 2.9992,28.0768 8.2252,35.2788 C8.3772,35.4868 8.6832,35.5078 8.8662,35.3248 L9.5582,34.6328 Z" id="Fill-28" fill="#FEFEFE"></path>
                <path d="M37.0724,37.7011 C30.4824,44.2911 20.0874,44.8791 12.8014,39.7771 C12.5724,39.6171 12.5484,39.2851 12.7454,39.0881 L13.3814,38.4521 C13.5354,38.2981 13.7774,38.2791 13.9574,38.4041 C20.5704,43.0011 29.8674,42.3841 35.8114,36.4391 C41.7504,30.5011 42.3604,21.2101 37.7754,14.5851 C37.6514,14.4051 37.6694,14.1641 37.8234,14.0101 L38.4664,13.3671 C38.6634,13.1701 38.9954,13.1941 39.1554,13.4221 C44.2674,20.6991 43.6754,31.0971 37.0724,37.7011" id="Fill-30" fill="#FEFEFE"></path>
                <path d="M16.4386,13.4179 C16.5806,13.5599 16.7996,13.5789 16.9686,13.4719 C21.8796,10.3459 28.3826,10.9639 32.6286,15.2099 C36.8746,19.4549 37.4916,25.9579 34.3656,30.8689 C34.2586,31.0379 34.2786,31.2579 34.4196,31.3989 L35.1056,32.0849 C35.2946,32.2739 35.6156,32.2469 35.7626,32.0219 C39.4006,26.4589 38.8086,18.8419 33.9016,13.9359 C28.9956,9.0289 21.3786,8.4369 15.8156,12.0749 C15.5906,12.2219 15.5636,12.5419 15.7526,12.7319 L16.4386,13.4179 Z" id="Fill-32" fill="#FEFEFE"></path>
                <path d="M30.5626,35.1835 C30.4196,35.0405 30.2016,35.0175 30.0276,35.1205 C25.3506,37.8755 18.7636,37.4325 14.5836,33.2535 C10.4046,29.0745 9.9616,22.4875 12.7176,17.8095 C12.8206,17.6365 12.7966,17.4175 12.6536,17.2755 L11.9856,16.6075 C11.7866,16.4085 11.4486,16.4415 11.3016,16.6815 C8.0506,22.0195 8.4796,29.6975 13.3106,34.5275 C18.1406,39.3585 25.8186,39.7875 31.1556,36.5365 C31.3966,36.3895 31.4296,36.0505 31.2296,35.8515 L30.5626,35.1835 Z" id="Fill-34" fill="#FEFEFE"></path>
            </g>
        </g>
    </g>
</svg>